<svg width="48" height="48" viewBox="0 0 48 48" fill="none" xmlns="http://www.w3.org/2000/svg">
<g id="Design Icon">
<circle id="Ellipse 6" cx="24" cy="24" r="24" fill="white"/>
<g id="Design Icon_2">
<path id="Vector" d="M25.9179 30.5428L19.9263 36.5042C20.6388 35.5204 21.059 34.3131 21.0607 33.0083C21.0563 36.3183 18.3581 39.0002 15.0303 39.0002H32.9697C36.3002 39.0002 39 36.314 39 33.0002C39 29.6865 36.3002 27.0002 32.9697 27.0002H29.3313L25.9179 30.5428Z" fill="#007BFF"/>
<path id="Vector_2" opacity="0.7" d="M19.9262 36.5037L25.9178 30.5423L34.7192 21.408C37.0137 19.0267 36.9738 15.2572 34.6293 12.9246C32.2495 10.5567 28.3911 10.5567 26.0113 12.9246L21.0606 17.8503V33.0001C21.0606 34.3079 20.6401 35.518 19.9262 36.5037Z" fill="#007BFF"/>
<path id="Vector_3" opacity="0.4" d="M21.0607 15V33C21.0607 36.3137 18.3608 39 15.0303 39C11.6999 39 9 36.3137 9 33V15C9 11.6863 11.6999 9 15.0303 9C18.3608 9 21.0607 11.6863 21.0607 15Z" fill="#007BFF"/>
<path id="Vector_4" d="M16.5379 33C16.5379 33.8284 15.8629 34.5 15.0303 34.5C14.1977 34.5 13.5227 33.8284 13.5227 33C13.5227 32.1716 14.1977 31.5 15.0303 31.5C15.8629 31.5 16.5379 32.1716 16.5379 33Z" fill="#007BFF"/>
</g>
</g>
</svg>
