<svg width="48" height="48" viewBox="0 0 48 48" fill="none" xmlns="http://www.w3.org/2000/svg">
<g id="Develop Icon">
<circle id="Ellipse 6" cx="24" cy="24" r="24" fill="white"/>
<g id="Group 1">
<path id="Vector" opacity="0.4" d="M14.6492 27.75L13.4682 28.3405C10.4894 29.8299 9 30.5746 9 31.5C9 32.4254 10.4894 33.1701 13.4682 34.6595L17.6809 36.7658C20.6598 38.2552 22.1492 38.9999 24 38.9999C25.8508 38.9999 27.3402 38.2552 30.3191 36.7658L34.5318 34.6595C37.5106 33.1701 39 32.4254 39 31.5C39 30.5746 37.5106 29.8299 34.5318 28.3405L33.3508 27.75L30.3191 29.2659C27.3402 30.7553 25.8508 31.5 24 31.5C22.1492 31.5 20.6598 30.7553 17.6809 29.2659L14.6492 27.75Z" fill="#007BFF"/>
<path id="Vector_2" opacity="0.7" d="M14.6492 20.2498L13.4682 20.8402C10.4894 22.3296 9 23.0743 9 23.9997C9 24.9251 10.4894 25.6698 13.4682 27.1592L17.6809 29.2656C20.6598 30.755 22.1492 31.4997 24 31.4997C25.8508 31.4997 27.3402 30.755 30.3191 29.2656L34.5318 27.1592C37.5106 25.6698 39 24.9251 39 23.9997C39 23.0743 37.5106 22.3296 34.5318 20.8402L33.3508 20.2498L30.3191 21.7656C27.3402 23.255 25.8508 23.9997 24 23.9997C22.1492 23.9997 20.6598 23.255 17.6809 21.7656L14.6492 20.2498Z" fill="#007BFF"/>
<g id="Vector_3">
<path d="M13.4682 19.6594C10.4894 18.17 9 17.4253 9 16.4999C9 15.5745 10.4894 14.8298 13.4682 13.3404L17.6809 11.2341C20.6598 9.7447 22.1492 9 24 9C25.8508 9 27.3402 9.7447 30.3191 11.2341L34.5318 13.3404C37.5106 14.8298 39 15.5745 39 16.4999C39 17.4253 37.5106 18.17 34.5318 19.6594L30.3191 21.7658C27.3402 23.2552 25.8508 23.9999 24 23.9999C22.1492 23.9999 20.6598 23.2552 17.6809 21.7658L13.4682 19.6594Z" fill="#1C274C"/>
<path fill-rule="evenodd" clip-rule="evenodd" d="M9 16.4999C9 17.4253 10.4894 18.17 13.4682 19.6594L17.6809 21.7658C20.6598 23.2552 22.1492 23.9999 24 23.9999C25.8508 23.9999 27.3402 23.2552 30.3191 21.7658L34.5318 19.6594C37.5106 18.17 39 17.4253 39 16.4999C39 15.5745 37.5106 14.8298 34.5318 13.3404L30.3191 11.2341C27.3402 9.7447 25.8508 9 24 9C22.1492 9 20.6598 9.7447 17.6809 11.2341L13.4682 13.3404C10.4894 14.8298 9 15.5745 9 16.4999Z" fill="#007BFF"/>
</g>
</g>
</g>
</svg>
