<svg width="20" height="20" viewBox="0 0 20 20" fill="none" xmlns="http://www.w3.org/2000/svg">
<path d="M19.9479 7.67197C19.817 7.26699 19.4578 6.97935 19.0328 6.94105L13.2603 6.4169L10.9776 1.0742C10.8093 0.682654 10.426 0.429199 10.0001 0.429199C9.57425 0.429199 9.19094 0.682654 9.02263 1.07512L6.74001 6.4169L0.966544 6.94105C0.542339 6.98027 0.184054 7.26699 0.052367 7.67197C-0.0793197 8.07695 0.0422959 8.52114 0.363196 8.80115L4.72656 12.6278L3.4399 18.2956C3.34576 18.7123 3.5075 19.1431 3.85328 19.393C4.03913 19.5273 4.25658 19.5956 4.47585 19.5956C4.66491 19.5956 4.85245 19.5447 5.02076 19.444L10.0001 16.468L14.9777 19.444C15.3419 19.6631 15.8011 19.6431 16.1461 19.393C16.492 19.1423 16.6536 18.7114 16.5594 18.2956L15.2728 12.6278L19.6362 8.80191C19.9571 8.52114 20.0796 8.07771 19.9479 7.67197Z" fill="#FFB543"/>
</svg>
