<svg width="48" height="48" viewBox="0 0 48 48" fill="none" xmlns="http://www.w3.org/2000/svg">
<g id="Support icon">
<circle id="Ellipse 6" cx="24" cy="24" r="24" fill="white"/>
<g id="Support icon_2">
<path id="Vector" fill-rule="evenodd" clip-rule="evenodd" d="M9 15.9512C9 12.1122 12.1122 9 15.9512 9C19.7903 9 22.9024 12.1122 22.9024 15.9512C22.9024 19.7903 19.7903 22.9024 15.9512 22.9024C12.1122 22.9024 9 19.7903 9 15.9512Z" fill="#007BFF"/>
<path id="Vector_2" opacity="0.5" fill-rule="evenodd" clip-rule="evenodd" d="M25.0979 32.0489C25.0979 28.2098 28.2101 25.0977 32.0491 25.0977C35.8882 25.0977 39.0003 28.2098 39.0003 32.0489C39.0003 35.8879 35.8882 39.0001 32.0491 39.0001C28.2101 39.0001 25.0979 35.8879 25.0979 32.0489Z" fill="#007BFF"/>
<path id="Rectangle 1883" d="M9 32.25C9 29.068 9 27.477 9.98851 26.4885C10.977 25.5 12.568 25.5 15.75 25.5C18.932 25.5 20.523 25.5 21.5115 26.4885C22.5 27.477 22.5 29.068 22.5 32.25C22.5 35.432 22.5 37.023 21.5115 38.0115C20.523 39 18.932 39 15.75 39C12.568 39 10.977 39 9.98851 38.0115C9 37.023 9 35.432 9 32.25Z" fill="#007BFF"/>
<path id="Rectangle 1881" opacity="0.5" d="M25.5 15.75C25.5 12.568 25.5 10.977 26.4885 9.98851C27.477 9 29.068 9 32.25 9C35.432 9 37.023 9 38.0115 9.98851C39 10.977 39 12.568 39 15.75C39 18.932 39 20.523 38.0115 21.5115C37.023 22.5 35.432 22.5 32.25 22.5C29.068 22.5 27.477 22.5 26.4885 21.5115C25.5 20.523 25.5 18.932 25.5 15.75Z" fill="#007BFF"/>
</g>
</g>
</svg>
